<svg xmlns="http://www.w3.org/2000/svg" viewBox="0 0 920 660" role="img" aria-label="k100s icon options">
  <defs>
    <filter id="shadow" x="-16%" y="-16%" width="132%" height="140%">
      <feDropShadow dx="0" dy="10" stdDeviation="14" flood-color="#0f172a" flood-opacity="0.18"/>
    </filter>
    <linearGradient id="blue" x1="0" y1="0" x2="1" y2="1">
      <stop offset="0" stop-color="#38bdf8"/>
      <stop offset="1" stop-color="#2563eb"/>
    </linearGradient>
    <linearGradient id="teal" x1="0" y1="0" x2="1" y2="1">
      <stop offset="0" stop-color="#14b8a6"/>
      <stop offset="1" stop-color="#0f766e"/>
    </linearGradient>
  </defs>

  <rect width="920" height="660" fill="#f8fafc"/>

  <g font-family="Inter, ui-sans-serif, system-ui, -apple-system, BlinkMacSystemFont, Segoe UI, sans-serif">
    <g transform="translate(40 32)">
      <text x="0" y="0" dominant-baseline="hanging" font-size="26" font-weight="750" fill="#0f172a">k100s icon options</text>
      <text x="0" y="36" dominant-baseline="hanging" font-size="14" font-weight="500" fill="#64748b">Simpler directions, each designed around a readable app-shape plus a compact k100s mark.</text>
    </g>

    <g transform="translate(40 100)">
      <g filter="url(#shadow)">
        <rect x="0" y="0" width="240" height="240" rx="54" fill="#0f172a"/>
        <path d="M50 86l42 34-42 34" fill="none" stroke="#38bdf8" stroke-width="16" stroke-linecap="round" stroke-linejoin="round"/>
        <path d="M118 154h72" stroke="#e2e8f0" stroke-width="16" stroke-linecap="round"/>
        <text x="120" y="82" text-anchor="middle" dominant-baseline="central" font-size="50" font-weight="850" fill="#ffffff">k100s</text>
        <circle cx="72" cy="190" r="11" fill="#22d3ee"/>
        <circle cx="120" cy="190" r="11" fill="#a3e635"/>
        <circle cx="168" cy="190" r="11" fill="#facc15"/>
      </g>
      <text x="120" y="272" text-anchor="middle" font-size="15" font-weight="700" fill="#334155">A. Terminal</text>
    </g>

    <g transform="translate(340 100)">
      <g filter="url(#shadow)">
        <rect x="0" y="0" width="240" height="240" rx="54" fill="url(#blue)"/>
        <circle cx="120" cy="92" r="58" fill="#eff6ff"/>
        <circle cx="120" cy="92" r="34" fill="#2563eb"/>
        <path d="M120 22v30M120 132v30M50 92h30M160 92h30M72 44l22 22M146 118l22 22M168 44l-22 22M94 118l-22 22" stroke="#eff6ff" stroke-width="12" stroke-linecap="round"/>
        <text x="120" y="172" text-anchor="middle" dominant-baseline="central" font-size="49" font-weight="850" fill="#ffffff">k100s</text>
      </g>
      <text x="120" y="272" text-anchor="middle" font-size="15" font-weight="700" fill="#334155">B. Ship Wheel</text>
    </g>

    <g transform="translate(640 100)">
      <g filter="url(#shadow)">
        <rect x="0" y="0" width="240" height="240" rx="54" fill="#ffffff"/>
        <rect x="22" y="22" width="196" height="196" rx="42" fill="#e0f2fe"/>
        <path d="M52 70h136M52 104h136M52 138h136" stroke="#2563eb" stroke-width="16" stroke-linecap="round"/>
        <circle cx="68" cy="70" r="10" fill="#0f766e"/>
        <circle cx="120" cy="104" r="10" fill="#f59e0b"/>
        <circle cx="172" cy="138" r="10" fill="#db2777"/>
        <rect x="38" y="162" width="164" height="42" rx="21" fill="#0f172a"/>
        <text x="120" y="183" text-anchor="middle" dominant-baseline="central" font-size="32" font-weight="850" fill="#ffffff">k100s</text>
      </g>
      <text x="120" y="272" text-anchor="middle" font-size="15" font-weight="700" fill="#334155">C. Pod List</text>
    </g>

    <g transform="translate(40 390)">
      <g filter="url(#shadow)">
        <rect x="0" y="0" width="240" height="240" rx="54" fill="url(#teal)"/>
        <text x="120" y="103" text-anchor="middle" dominant-baseline="central" font-size="58" font-weight="900" fill="#ffffff">K</text>
        <rect x="48" y="142" width="144" height="54" rx="27" fill="#0f172a" opacity="0.94"/>
        <text x="120" y="169" text-anchor="middle" dominant-baseline="central" font-size="30" font-weight="850" fill="#ffffff">100s</text>
        <circle cx="68" cy="62" r="13" fill="#ccfbf1"/>
        <circle cx="120" cy="48" r="13" fill="#ccfbf1"/>
        <circle cx="172" cy="62" r="13" fill="#ccfbf1"/>
      </g>
      <text x="120" y="272" text-anchor="middle" font-size="15" font-weight="700" fill="#334155">D. K + 100s</text>
    </g>

    <g transform="translate(340 390)">
      <g filter="url(#shadow)">
        <rect x="0" y="0" width="240" height="240" rx="54" fill="#1e293b"/>
        <rect x="40" y="52" width="160" height="136" rx="28" fill="#f8fafc"/>
        <path d="M69 88h102M69 122h72M69 156h102" stroke="#2563eb" stroke-width="15" stroke-linecap="round"/>
        <path d="M42 184l24-26 24 26M150 184l24-26 24 26" fill="none" stroke="#22d3ee" stroke-width="13" stroke-linecap="round" stroke-linejoin="round"/>
        <text x="120" y="88" text-anchor="middle" dominant-baseline="central" font-size="35" font-weight="900" fill="#0f172a">k100s</text>
      </g>
      <text x="120" y="272" text-anchor="middle" font-size="15" font-weight="700" fill="#334155">E. Manifest</text>
    </g>

    <g transform="translate(640 390)">
      <g filter="url(#shadow)">
        <rect x="0" y="0" width="240" height="240" rx="54" fill="#2563eb"/>
        <path d="M50 66h140a22 22 0 0 1 22 22v64a22 22 0 0 1-22 22H50a22 22 0 0 1-22-22V88a22 22 0 0 1 22-22z" fill="#eff6ff"/>
        <path d="M72 120h96" stroke="#0f172a" stroke-width="18" stroke-linecap="round"/>
        <text x="120" y="121" text-anchor="middle" dominant-baseline="central" font-size="40" font-weight="900" fill="#0f172a">k100s</text>
        <circle cx="72" cy="184" r="13" fill="#22d3ee"/>
        <circle cx="120" cy="184" r="13" fill="#a3e635"/>
        <circle cx="168" cy="184" r="13" fill="#facc15"/>
      </g>
      <text x="120" y="272" text-anchor="middle" font-size="15" font-weight="700" fill="#334155">F. Badge</text>
    </g>
  </g>
</svg>
