<svg xmlns="http://www.w3.org/2000/svg" viewBox="0 0 1024 1024" role="img" aria-label="k100s app icon">
  <defs>
    <linearGradient id="bg" x1="156" y1="108" x2="868" y2="916" gradientUnits="userSpaceOnUse">
      <stop offset="0" stop-color="#0ea5e9"/>
      <stop offset="0.48" stop-color="#2563eb"/>
      <stop offset="1" stop-color="#0f766e"/>
    </linearGradient>
    <radialGradient id="glow" cx="31%" cy="23%" r="76%">
      <stop offset="0" stop-color="#ffffff" stop-opacity="0.34"/>
      <stop offset="0.48" stop-color="#ffffff" stop-opacity="0.08"/>
      <stop offset="1" stop-color="#ffffff" stop-opacity="0"/>
    </radialGradient>
    <filter id="soft-shadow" x="-20%" y="-20%" width="140%" height="145%">
      <feDropShadow dx="0" dy="28" stdDeviation="28" flood-color="#020617" flood-opacity="0.28"/>
    </filter>
    <filter id="mark-shadow" x="-18%" y="-18%" width="136%" height="136%">
      <feDropShadow dx="0" dy="14" stdDeviation="10" flood-color="#082f49" flood-opacity="0.24"/>
    </filter>
  </defs>

  <rect width="1024" height="1024" rx="224" fill="url(#bg)"/>
  <rect width="1024" height="1024" rx="224" fill="url(#glow)"/>
  <path
    d="M194 176c66-54 177-82 317-82 153 0 272 39 352 116-56-32-141-51-255-57-177-9-315 24-414 98z"
    fill="#ffffff"
    opacity="0.18"
  />

  <g filter="url(#soft-shadow)">
    <circle cx="512" cy="476" r="270" fill="#f8fafc" opacity="0.96"/>
    <circle cx="512" cy="476" r="205" fill="#dbeafe"/>
    <circle cx="512" cy="476" r="126" fill="#0f172a"/>
  </g>

  <g filter="url(#mark-shadow)">
    <path
      d="M500 202h24l34 102 86-63 19 14-32 103 108-2 7 22-88 61 88 62-7 22-108-3 32 103-19 14-86-63-34 102h-24l-34-102-86 63-19-14 32-103-108 3-7-22 88-62-88-61 7-22 108 2-32-103 19-14 86 63z"
      fill="#f8fafc"
    />
    <circle cx="512" cy="476" r="154" fill="#2563eb"/>
    <path d="M512 318a158 158 0 0 1 137 79 158 158 0 0 0-274 158 158 158 0 0 1 137-237z" fill="#38bdf8" opacity="0.46"/>
    <path
      d="M430 579V374h58v75h19l61-75h70l-81 96 89 109h-73l-66-82h-19v82z"
      fill="#ffffff"
    />
  </g>

  <g filter="url(#mark-shadow)">
    <rect x="266" y="684" width="492" height="126" rx="52" fill="#0f172a" opacity="0.94"/>
    <path d="M344 746l45-33 45 33-45 33z" fill="#22d3ee"/>
    <path d="M489 746l45-33 45 33-45 33z" fill="#a3e635"/>
    <path d="M634 746l45-33 45 33-45 33z" fill="#facc15"/>
    <path d="M389 746h290" stroke="#e2e8f0" stroke-width="18" stroke-linecap="round" opacity="0.82"/>
    <circle cx="389" cy="746" r="35" fill="#22d3ee"/>
    <circle cx="534" cy="746" r="35" fill="#a3e635"/>
    <circle cx="679" cy="746" r="35" fill="#facc15"/>
  </g>
</svg>
